#!OML:ASF G:\JayActor3\Patient Classification 1\Patient 1\Session 5\male.ASF
:FULLY-SPECIFIED
:DEGREES
898
root -16.7702 17.2366 -5.16897 0.820476 -140.105 0.810572
lowerback 7.18897 -1.62594 1.23391
upperback 0.608987 -2.12134 -0.70127
thorax -3.47117 -1.08974 -1.20189
lowerneck 1.87939 -0.341947 1.10084
upperneck 3.58856 -0.557964 1.46141
head 0.782667 -0.28644 0.262479
rclavicle -9.76033e-014 3.97569e-015
rhumerus -35.0027 -21.798 -77.6062
rradius 11.5569
rwrist 31.8551
rhand -15.7711 -4.92086
rfingers 7.12502
rthumb 10.421 -34.6426
lclavicle -9.76033e-014 3.97569e-015
lhumerus -30.6273 16.7272 80.4929
lradius 9.69706
lwrist 13.4412
lhand -24.3869 16.1795
lfingers 7.12502
lthumb 2.10373 46.1489
rfemur -25.4021 14.287 20.627
rtibia 27.7124
rfoot -20.1331 -11.2045
rtoes -6.34309
lfemur 3.28113 4.71822 -20.7592
ltibia 33.4155
lfoot -1.33332 -2.49051
ltoes -18.1774
899
root -16.9627 17.2297 -5.42413 0.191304 -139.33 1.16114
lowerback 7.1591 -1.67443 1.63983
upperback 0.700938 -2.15266 -0.623866
thorax -3.37221 -1.11001 -1.34881
lowerneck 1.87898 -0.470857 0.998185
upperneck 3.9091 -0.745118 1.49345
head 0.882595 -0.381428 0.288575
rclavicle 7.27055e-014 -1.45113e-014
rhumerus -35.1864 -22.0728 -77.396
rradius 11.4084
rwrist 32.1234
rhand -15.584 -5.0557
rfingers 7.12502
rthumb 10.6014 -34.7683
lclavicle 7.27055e-014 -1.45113e-014
lhumerus -30.4148 15.9042 80.9598
lradius 9.60991
lwrist 14.1785
lhand -24.4436 16.3271
lfingers 7.12502
lthumb 2.04895 46.2971
rfemur -23.5372 13.4632 21.3521
rtibia 26.874
rfoot -19.1775 -10.8553
rtoes -4.95803
lfemur 1.00882 4.85065 -20.0912
ltibia 39.0549
lfoot 1.06117 -2.86208
ltoes -16.7862
900
root -17.1508 17.2118 -5.67832 -0.590236 -138.616 1.56386
lowerback 7.27132 -1.68883 2.02752
upperback 0.819262 -2.14003 -0.543025
thorax -3.32302 -1.1086 -1.48277
lowerneck 1.88933 -0.61399 0.891591
upperneck 4.16863 -0.95076 1.56662
head 0.962906 -0.485728 0.327712
rclavicle -1.07642e-013 -9.93923e-016
rhumerus -35.3031 -22.2053 -77.3094
rradius 11.3155
rwrist 32.3018
rhand -15.4874 -5.17799
rfingers 7.12502
rthumb 10.6947 -34.8858
lclavicle -1.07642e-013 -9.93923e-016
lhumerus -30.1996 15.0352 81.4374
lradius 9.47277
lwrist 15.031
lhand -24.4984 16.5081
lfingers 7.12502
lthumb 1.99605 46.4786
rfemur -21.6194 12.7129 22.1777
rtibia 26.6013
rfoot -18.2698 -11.01
rtoes -2.94058
lfemur -1.27101 4.92742 -19.3804
ltibia 44.5531
lfoot 3.18201 -3.30114
ltoes -14.7739
901
root -17.3336 17.1854 -5.93126 -1.54837 -137.986 2.05339
lowerback 7.55598 -1.67063 2.40354
upperback 0.960039 -2.08196 -0.440533
thorax -3.34319 -1.08534 -1.58806
lowerneck 1.94428 -0.773201 0.77543
upperneck 4.31473 -1.17416 1.66119
head 1.00152 -0.599173 0.375075
rclavicle -1.80646e-014 -1.98785e-016
rhumerus -35.3484 -22.2069 -77.3234
rradius 11.2768
rwrist 32.4259
rhand -15.4726 -5.28345
rfingers 7.12502
rthumb 10.7089 -34.9905
lclavicle -1.80646e-014 -1.98785e-016
lhumerus -29.9909 14.1504 81.9314
lradius 9.27585
lwrist 15.9923
lhand -24.6034 16.733
lfingers 7.12502
lthumb 1.89459 46.7043
rfemur -19.7101 12.1545 23.0934
rtibia 26.7239
rfoot -17.4031 -11.5679
rtoes -0.208368
lfemur -3.49586 4.93696 -18.6215
ltibia 49.7145
lfoot 4.70077 -3.80845
ltoes -12.5914
902
root -17.5111 17.1515 -6.18157 -2.66956 -137.455 2.6499
lowerback 8.01088 -1.62721 2.7812
upperback 1.11274 -1.98453 -0.302525
thorax -3.44185 -1.04398 -1.6577
lowerneck 2.04573 -0.945746 0.650456
upperneck 4.33761 -1.40982 1.75037
head 0.994767 -0.719053 0.422604
rclavicle 2.36305e-014 -1.11319e-014
rhumerus -35.3159 -22.0861 -77.4155
rradius 11.2821
rwrist 32.4754
rhand -15.5711 -5.34552
rfingers 7.12502
rthumb 10.6139 -35.0575
lclavicle 2.36305e-014 -1.11319e-014
lhumerus -29.8154 13.2827 82.4417
lradius 9.04109
lwrist 17.0631
lhand -24.858 17.0002
lfingers 7.12502
lthumb 1.64873 46.9736
rfemur -17.9358 11.6908 24.117
rtibia 27.1526
rfoot -16.4783 -12.3371
rtoes 2.50798
lfemur -5.66235 4.8692 -17.8389
ltibia 54.4066
lfoot 5.40029 -4.36328
ltoes -10.8314
903
root -17.6851 17.1192 -6.4281 -3.90556 -137.012 3.37239
lowerback 8.58694 -1.5667 3.20635
upperback 1.2641 -1.85321 -0.130916
thorax -3.60652 -0.988175 -1.72093
lowerneck 2.16423 -1.13256 0.5454
upperneck 4.25806 -1.65856 1.81111
head 0.953577 -0.845199 0.458568
rclavicle -1.14028e-013 9.93923e-016
rhumerus -35.2146 -21.9301 -77.5395
rradius 11.3259
rwrist 32.4781
rhand -15.8075 -5.35162
rfingers 7.12502
rthumb 10.3858 -35.0751
lclavicle -1.14028e-013 9.93923e-016
lhumerus -29.6944 12.4301 82.9621
lradius 8.80868
lwrist 18.2158
lhand -25.307 17.3066
lfingers 7.12502
lthumb 1.21505 47.2829
rfemur -16.3435 11.2427 25.2405
rtibia 27.7654
rfoot -15.5941 -13.1029
rtoes 4.80003
lfemur -7.79316 4.70198 -17.0539
ltibia 58.4795
lfoot 5.31303 -4.88597
ltoes -9.46069
904
root -17.857 17.0784 -6.66719 -5.18602 -136.646 4.24169
lowerback 9.19343 -1.50798 3.72767
upperback 1.39217 -1.70745 0.0813672
thorax -3.8111 -0.928179 -1.79816
lowerneck 2.2875 -1.32166 0.436909
upperneck 4.1021 -1.90615 1.85313
head 0.888313 -0.970646 0.489895
rclavicle 7.45939e-014 2.78299e-015
rhumerus -35.0466 -21.7251 -77.6799
rradius 11.4084
rwrist 32.3835
rhand -16.1492 -5.33268
rfingers 7.12502
rthumb 10.0563 -35.0724
lclavicle 7.45939e-014 2.78299e-015
lhumerus -29.6724 11.627 83.486
lradius 8.63077
lwrist 19.3935
lhand -25.9335 17.6171
lfingers 7.12502
lthumb 0.610006 47.596
rfemur -15.012 10.7613 26.4469
rtibia 28.4956
rfoot -14.8256 -13.7172
rtoes 6.18107
lfemur -10.0169 4.45928 -16.2807
ltibia 61.9157
lfoot 4.56717 -5.33534
ltoes -8.46161
905
root -18.0299 17.0367 -6.89919 -6.39427 -136.321 5.18251
lowerback 9.73228 -1.45696 4.31358
upperback 1.4914 -1.56014 0.315334
thorax -4.00678 -0.869355 -1.89201
lowerneck 2.37931 -1.50966 0.328402
upperneck 3.90776 -2.14999 1.88279
head 0.816833 -1.09369 0.517746
rclavicle 4.8081e-015 1.0138e-014
rhumerus -34.8113 -21.4658 -77.8367
rradius 11.5301
rwrist 32.1457
rhand -16.573 -5.2789
rfingers 7.12502
rthumb 9.64736 -35.038
lclavicle 4.8081e-015 1.0138e-014
lhumerus -29.7469 10.8667 84.015
lradius 8.52908
lwrist 20.5364
lhand -26.6368 17.9091
lfingers 7.12502
lthumb -0.0692648 47.8889
rfemur -13.8856 10.2875 27.64
rtibia 29.2643
rfoot -14.4223 -14.1231
rtoes 6.99427
lfemur -12.3667 4.15279 -15.6044
ltibia 64.6436
lfoot 3.33388 -5.71814
ltoes -7.80917
906
root -18.205 16.9939 -7.12621 -7.50823 -135.997 6.19374
lowerback 10.1254 -1.41954 4.97361
upperback 1.57396 -1.42345 0.557455
thorax -4.13874 -0.816645 -2.02149
lowerneck 2.41601 -1.69795 0.230223
upperneck 3.69813 -2.39358 1.92036
head 0.750302 -1.21569 0.546313
rclavicle 4.68386e-015 2.38542e-014
rhumerus -34.5122 -21.1834 -78.0152
rradius 11.6852
rwrist 31.7782
rhand -17.0345 -5.18881
rfingers 7.12502
rthumb 9.20203 -34.968
lclavicle 4.68386e-015 2.38542e-014
lhumerus -29.8866 10.1254 84.5453
lradius 8.49203
lwrist 21.5911
lhand -27.3027 18.1625
lfingers 7.12502
lthumb -0.71242 48.1411
rfemur -12.8955 9.87962 28.8167
rtibia 30.0599
rfoot -14.6521 -14.3783
rtoes 7.71616
lfemur -14.8531 3.79605 -15.016
ltibia 66.6638
lfoot 1.78157 -6.04599
ltoes -7.33557
